General
Complete name                    : Pusher.1.mkv
Format                           : Matroska
File size                        : 2.79 GiB
Duration                         : 1h 45mn
Overall bit rate                 : 3 798 Kbps
Writing application              : HandBrake 0.9.4

Video
ID                               : 1
Format                           : AVC
Format/Info                      : Advanced Video Codec
Format profile                   : Main@L3.0
Format settings, CABAC           : Yes
Format settings, ReFrames        : 2 frames
Muxing mode                      : Container profile=Unknown@3.0
Codec ID                         : V_MPEG4/ISO/AVC
Duration                         : 1h 45mn
Bit rate                         : 3 274 Kbps
Width                            : 720 pixels
Height                           : 576 pixels
Display aspect ratio             : 16:9
Frame rate                       : 25.000 fps
Standard                         : PAL
Resolution                       : 8 bits
Colorimetry                      : 4:2:0
Scan type                        : Progressive
Bits/(Pixel*Frame)               : 0.316
Stream size                      : 2.41 GiB (86%)
Writing library                  : x264 core 79


Audio
ID                               : 2
Format                           : AC-3
Format/Info                      : Audio Coding 3
Format_Settings_ModeExtension    : CM (complete main)
Codec ID                         : A_AC3
Duration                         : 1h 45mn
Bit rate mode                    : Constant
Bit rate                         : 448 Kbps
Channel(s)                       : 6 channels
Channel positions                : Front: L C R, Side: L R, LFE
Sampling rate                    : 48.0 KHz
Stream size                      : 337 MiB (12%)
Language                         : Danish

Text #1
ID                               : 3
Format                           : VobSub
Codec ID                         : S_VOBSUB
Codec ID/Info                    : The same subtitle format used on DVDs
Language                         : Danish

Text #2
ID                               : 4
Format                           : VobSub
Codec ID                         : S_VOBSUB
Codec ID/Info                    : The same subtitle format used on DVDs
Language                         : Finnish

Text #3
ID                               : 5
Format                           : VobSub
Codec ID                         : S_VOBSUB
Codec ID/Info                    : The same subtitle format used on DVDs
Language                         : Norwegian

Text #4
ID                               : 6
Format                           : VobSub
Codec ID                         : S_VOBSUB
Codec ID/Info                    : The same subtitle format used on DVDs
Language                         : Swedish

Menu
00:00:00.000                     : Chapter 1
00:07:59.200                     : Chapter 2
00:15:42.760                     : Chapter 3
00:24:52.840                     : Chapter 4
00:32:10.200                     : Chapter 5
00:39:52.280                     : Chapter 6
00:48:16.680                     : Chapter 7
00:55:49.840                     : Chapter 8
01:03:37.040                     : Chapter 9
01:10:57.160                     : Chapter 10
01:23:47.920                     : Chapter 11
01:41:33.840                     : Chapter 12
01:45:17.040                     : Chapter 13 
http://www.imdb.com/title/tt0117407/

***********************************************************************************

General
Complete name                    : Pusher II.mkv
Format                           : Matroska
File size                        : 2.37 GiB
Duration                         : 1h 35mn
Overall bit rate                 : 3 544 Kbps
Writing application              : HandBrake 0.9.4

Video
ID                               : 1
Format                           : AVC
Format/Info                      : Advanced Video Codec
Format profile                   : Main@L3.0
Format settings, CABAC           : Yes
Format settings, ReFrames        : 2 frames
Muxing mode                      : Container profile=Unknown@3.0
Codec ID                         : V_MPEG4/ISO/AVC
Duration                         : 1h 35mn
Bit rate                         : 3 026 Kbps
Width                            : 720 pixels
Height                           : 574 pixels
Display aspect ratio             : 16:9
Frame rate                       : 25.000 fps
Resolution                       : 8 bits
Colorimetry                      : 4:2:0
Scan type                        : Progressive
Bits/(Pixel*Frame)               : 0.293
Stream size                      : 2.03 GiB (85%)
Writing library                  : x264 core 79


Audio
ID                               : 2
Format                           : AC-3
Format/Info                      : Audio Coding 3
Format_Settings_ModeExtension    : CM (complete main)
Codec ID                         : A_AC3
Duration                         : 1h 35mn
Bit rate mode                    : Constant
Bit rate                         : 448 Kbps
Channel(s)                       : 6 channels
Channel positions                : Front: L C R, Side: L R, LFE
Sampling rate                    : 48.0 KHz
Stream size                      : 307 MiB (13%)
Language                         : Danish

Text #1
ID                               : 3
Format                           : VobSub
Codec ID                         : S_VOBSUB
Codec ID/Info                    : The same subtitle format used on DVDs
Language                         : Danish

Text #2
ID                               : 4
Format                           : VobSub
Codec ID                         : S_VOBSUB
Codec ID/Info                    : The same subtitle format used on DVDs
Language                         : Finnish

Text #3
ID                               : 5
Format                           : VobSub
Codec ID                         : S_VOBSUB
Codec ID/Info                    : The same subtitle format used on DVDs
Language                         : Norwegian

Text #4
ID                               : 6
Format                           : VobSub
Codec ID                         : S_VOBSUB
Codec ID/Info                    : The same subtitle format used on DVDs
Language                         : Swedish

Menu
00:00:00.000                     : Chapter 1
00:04:51.040                     : Chapter 2
00:13:01.000                     : Chapter 3
00:19:49.960                     : Chapter 4
00:28:11.240                     : Chapter 5
00:36:48.080                     : Chapter 6
00:44:50.320                     : Chapter 7
00:53:32.320                     : Chapter 8
01:04:01.640                     : Chapter 9
01:13:02.120                     : Chapter 10
01:20:33.440                     : Chapter 11
01:29:30.960                     : Chapter 12
01:35:47.840                     : Chapter 13 
http://www.imdb.com/media/rm796168704/tt0396184

**************************************************************************************

General
Complete name                    : Pusher3.mkv
Format                           : Matroska
File size                        : 1.72 GiB
Duration                         : 1h 43mn
Overall bit rate                 : 2 385 Kbps
Writing application              : HandBrake svn3284

Video
ID                               : 1
Format                           : AVC
Format/Info                      : Advanced Video Codec
Format profile                   : Main@L3.0
Format settings, CABAC           : Yes
Format settings, ReFrames        : 2 frames
Muxing mode                      : Container profile=Unknown@3.0
Codec ID                         : V_MPEG4/ISO/AVC
Duration                         : 1h 43mn
Bit rate                         : 1 889 Kbps
Width                            : 720 pixels
Height                           : 576 pixels
Display aspect ratio             : 16:9
Original display aspect ratio    : 16:9
Frame rate mode                  : Variable
Frame rate                       : 25.000 fps
Standard                         : PAL
Resolution                       : 8 bits
Colorimetry                      : 4:2:0
Scan type                        : Progressive
Bits/(Pixel*Frame)               : 0.182
Stream size                      : 1.36 GiB (79%)
Writing library                  : x264 core 94


Audio
ID                               : 2
Format                           : AC-3
Format/Info                      : Audio Coding 3
Format_Settings_ModeExtension    : CM (complete main)
Codec ID                         : A_AC3
Duration                         : 1h 43mn
Bit rate mode                    : Constant
Bit rate                         : 448 Kbps
Channel(s)                       : 6 channels
Channel positions                : Front: L C R, Side: L R, LFE
Sampling rate                    : 48.0 KHz
Stream size                      : 331 MiB (19%)
Language                         : Danish

Text #1
ID                               : 3
Format                           : VobSub
Codec ID                         : S_VOBSUB
Codec ID/Info                    : The same subtitle format used on DVDs
Language                         : Danish

Text #2
ID                               : 4
Format                           : VobSub
Codec ID                         : S_VOBSUB
Codec ID/Info                    : The same subtitle format used on DVDs
Language                         : Finnish

Text #3
ID                               : 5
Format                           : VobSub
Codec ID                         : S_VOBSUB
Codec ID/Info                    : The same subtitle format used on DVDs
Language                         : Norwegian

Text #4
ID                               : 6
Format                           : VobSub
Codec ID                         : S_VOBSUB
Codec ID/Info                    : The same subtitle format used on DVDs
Language                         : Swedish

Menu
00:00:00.000                     : Chapter  1
00:08:17.840                     : Chapter  2
00:17:53.040                     : Chapter  3
00:29:00.360                     : Chapter  4
00:35:19.520                     : Chapter  5
00:46:22.280                     : Chapter  6
00:53:48.440                     : Chapter  7
01:06:31.680                     : Chapter  8
01:17:16.880                     : Chapter  9
01:24:18.080                     : Chapter 10
01:34:10.720                     : Chapter 11
01:38:01.600                     : Chapter 12
01:43:12.840                     : Chapter 13 
http://www.imdb.com/title/tt0425379/

